<?xml version="1.0" standalone="no"?>
<!DOCTYPE svg PUBLIC "-//W3C//DTD SVG 20010904//EN"
 "http://www.w3.org/TR/2001/REC-SVG-20010904/DTD/svg10.dtd">
<svg version="1.0" xmlns="http://www.w3.org/2000/svg"
 width="300.000000pt" height="300.000000pt" viewBox="0 0 300.000000 300.000000"
 preserveAspectRatio="xMidYMid meet">
<metadata>
Created by potrace 1.10, written by Peter Selinger 2001-2011
</metadata>
<g transform="translate(0.000000,300.000000) scale(0.100000,-0.100000)"
fill="#000000" stroke="none">
<path d="M305 2871 c-85 -22 -156 -92 -175 -172 -14 -56 -7 -106 20 -159 10
-19 244 -260 519 -535 l501 -500 -504 -505 c-277 -278 -511 -519 -520 -536
-52 -104 -12 -240 87 -298 56 -33 123 -42 184 -26 45 12 85 50 558 521 281
280 515 509 520 509 5 0 239 -229 520 -509 473 -471 513 -509 558 -521 195
-52 360 150 267 328 -10 21 -244 262 -519 537 l-501 500 504 505 c277 278 511
519 519 535 69 138 -19 301 -176 329 -25 5 -58 1 -95 -9 -56 -16 -67 -26 -567
-526 l-510 -509 -500 500 c-325 325 -514 507 -540 520 -48 23 -109 32 -150 21z"/>
</g>
</svg>
